<svg xmlns="http://www.w3.org/2000/svg" viewBox="0 0 200 200" role="img" aria-label="Default coach avatar 2">
  <defs>
    <linearGradient id="bg2" x1="0" y1="0" x2="1" y2="1">
      <stop offset="0%" stop-color="#1f6aa6"/>
      <stop offset="100%" stop-color="#174a74"/>
    </linearGradient>
  </defs>
  <rect width="200" height="200" fill="url(#bg2)"/>
  <circle cx="100" cy="80" r="34" fill="#f1c39f"/>
  <path d="M66 72c4-22 19-34 34-34 16 0 31 12 34 34-9-7-21-11-34-11-13 0-25 4-34 11z" fill="#2a1a16"/>
  <path d="M42 188c5-34 28-54 58-54s53 20 58 54" fill="#112b43"/>
  <circle cx="88" cy="81" r="3" fill="#1a2531"/>
  <circle cx="112" cy="81" r="3" fill="#1a2531"/>
  <path d="M89 96c6 6 16 6 22 0" stroke="#9d4737" stroke-width="3" fill="none" stroke-linecap="round"/>
</svg>
