<svg xmlns="http://www.w3.org/2000/svg" viewBox="0 0 200 200" role="img" aria-label="Default coach avatar 4">
  <defs>
    <linearGradient id="bg4" x1="0" y1="0" x2="1" y2="1">
      <stop offset="0%" stop-color="#235e8f"/>
      <stop offset="100%" stop-color="#2f76b1"/>
    </linearGradient>
  </defs>
  <rect width="200" height="200" fill="url(#bg4)"/>
  <circle cx="100" cy="79" r="35" fill="#f0bf97"/>
  <path d="M62 72c4-23 18-35 38-35 20 0 34 12 38 35-11-8-23-12-38-12-15 0-27 4-38 12z" fill="#1d202a"/>
  <path d="M39 188c5-35 29-56 61-56s56 21 61 56" fill="#102a42"/>
  <circle cx="88" cy="79" r="3.1" fill="#1a2531"/>
  <circle cx="112" cy="79" r="3.1" fill="#1a2531"/>
  <path d="M88 95c6.5 6 17.5 6 24 0" stroke="#9a4739" stroke-width="3.1" fill="none" stroke-linecap="round"/>
</svg>
